<svg width="93" height="38" viewBox="0 0 93 38" fill="none" xmlns="http://www.w3.org/2000/svg">
<path d="M65 19C65 29.4934 56.4934 38 46 38C35.5066 38 27 29.4934 27 19C27 8.50659 35.5066 0 46 0C56.4934 0 65 8.50659 65 19Z" fill="#B0907A"/>
<path d="M91.6784 16.2913C91.8856 16.2732 92.0534 16.3548 92.1817 16.5364C92.326 16.7165 92.4127 16.9739 92.442 17.3086C92.4922 17.8824 92.4 18.3884 92.1652 18.8265C91.7789 19.5509 91.2359 20.1365 90.5362 20.5832C89.8524 21.0285 89.0084 21.295 88.0042 21.3829C86.4741 21.5168 85.2469 21.1664 84.3226 20.3318C83.3969 19.4812 82.8658 18.2749 82.7291 16.7129C82.6329 15.6131 82.7748 14.5727 83.1547 13.5919C83.5333 12.5951 84.1046 11.7822 84.8687 11.1532C85.6487 10.5229 86.5568 10.1623 87.5928 10.0717C88.5173 9.99082 89.2829 10.2049 89.8895 10.714C90.4948 11.2071 90.8386 11.9239 90.9209 12.8643C91.0171 13.9641 90.7016 14.9473 89.9743 15.814C89.2617 16.6633 87.9772 17.4021 86.1208 18.0303C86.5675 18.73 87.2451 19.0401 88.1537 18.9606C88.8072 18.9035 89.3279 18.7053 89.7158 18.3662C90.1197 18.0257 90.5692 17.4725 91.0643 16.7064C91.2346 16.4506 91.4393 16.3122 91.6784 16.2913ZM87.3914 12.4503C86.8016 12.5019 86.3295 12.8885 85.9751 13.6102C85.6365 14.3304 85.5098 15.1767 85.5949 16.149L85.5991 16.1968C86.5199 15.8914 87.2318 15.4918 87.7347 14.9981C88.2376 14.5044 88.4632 13.9626 88.4117 13.3729C88.3852 13.0701 88.2766 12.8386 88.0859 12.6786C87.9098 12.5013 87.6783 12.4252 87.3914 12.4503Z" fill="#403F3D"/>
<path d="M79.2976 22.1446C77.7356 22.2813 76.4779 21.9497 75.5245 21.1497C74.5857 20.3324 74.0529 19.1985 73.926 17.7481C73.813 16.457 73.969 15.303 74.394 14.2861C74.819 13.2692 75.4149 12.4622 76.1818 11.8651C76.9487 11.268 77.7784 10.9304 78.671 10.8523C79.5477 10.7756 80.2481 10.9793 80.7723 11.4635C81.311 11.9303 81.6159 12.5702 81.6871 13.383C81.7456 14.0525 81.6437 14.6316 81.3813 15.1203C81.1348 15.6076 80.7725 15.8722 80.2944 15.9141C79.9915 15.9406 79.7382 15.8904 79.5344 15.7637C79.3465 15.6356 79.2414 15.444 79.2191 15.189C79.2093 15.0774 79.2141 14.9485 79.2334 14.8023C79.2527 14.6561 79.2676 14.5504 79.278 14.4852C79.3367 14.2392 79.357 14.0125 79.3389 13.8053C79.3208 13.5981 79.2511 13.4436 79.1297 13.3418C79.0243 13.2386 78.876 13.1953 78.6847 13.2121C78.3181 13.2441 77.9901 13.4415 77.7006 13.8041C77.4097 14.1508 77.193 14.6114 77.0506 15.186C76.9081 15.7606 76.8661 16.3826 76.9247 17.0521C77.0865 18.901 77.9723 19.7551 79.5821 19.6142C80.2356 19.557 80.9181 19.2805 81.6296 18.7846C82.3556 18.2714 83.0469 17.5444 83.7034 16.6036C83.8752 16.3637 84.0806 16.2333 84.3197 16.2124C84.5269 16.1942 84.6946 16.2759 84.8229 16.4574C84.9672 16.6375 85.054 16.895 85.0832 17.2297C85.1362 17.8354 85.028 18.3427 84.7587 18.7518C84.0904 19.7418 83.2526 20.5378 82.2452 21.1399C81.2524 21.7247 80.2699 22.0596 79.2976 22.1446Z" fill="#403F3D"/>
<path d="M65.548 23.3476C64.9423 23.4006 64.4841 23.1195 64.1733 22.5042C63.8784 21.8876 63.6696 20.8779 63.5469 19.4753C63.3656 17.4032 63.4882 15.4089 63.9148 13.4924C64.0179 13.0177 64.2197 12.6627 64.5203 12.4276C64.8355 12.1752 65.288 12.0232 65.8778 11.9716C66.1965 11.9437 66.4232 11.964 66.5577 12.0326C66.6921 12.1011 66.7692 12.2469 66.7887 12.4701C66.811 12.7251 66.7416 13.3094 66.5806 14.2229C66.477 14.8744 66.3983 15.4434 66.3445 15.93C66.2907 16.4165 66.2626 17.0132 66.2602 17.7201C66.6663 16.3033 67.1584 15.136 67.7366 14.2181C68.3148 13.3002 68.8987 12.6308 69.4883 12.2098C70.0938 11.7874 70.6595 11.5532 71.1855 11.5072C72.2215 11.4166 72.7849 11.8893 72.8755 12.9253C72.8936 13.1325 72.8658 13.6409 72.7921 14.4504C72.7204 15.0991 72.6915 15.5032 72.7054 15.6626C72.7542 16.2204 72.9779 16.4819 73.3764 16.4471C73.8227 16.408 74.3658 16.0072 75.0057 15.2445C75.1948 15.0191 75.4009 14.8967 75.6241 14.8772C75.8313 14.8591 75.9991 14.9408 76.1274 15.1223C76.2702 15.2864 76.3549 15.5199 76.3814 15.8228C76.433 16.4125 76.314 16.8887 76.0245 17.2513C75.6187 17.7526 75.1275 18.1971 74.5511 18.5848C73.9893 18.9552 73.3736 19.1697 72.7042 19.2282C71.8594 19.3021 71.1951 19.1434 70.7111 18.7521C70.2431 18.3594 69.977 17.7965 69.9129 17.0633C69.892 16.8242 69.895 16.583 69.9219 16.3397C69.9258 16.0182 69.923 15.8016 69.9132 15.69C69.8909 15.435 69.7921 15.3151 69.6167 15.3305C69.3777 15.3514 69.0826 15.6503 68.7315 16.2271C68.395 16.7865 68.0738 17.5213 67.768 18.4314C67.4621 19.3415 67.2322 20.2932 67.0782 21.2864C66.9684 22.0509 66.8058 22.5791 66.5904 22.8709C66.3896 23.1455 66.0421 23.3044 65.548 23.3476Z" fill="#403F3D"/>
<path d="M55.2452 24.2488C54.5279 24.3116 53.9096 24.0364 53.3902 23.4233C52.8853 22.7929 52.5897 21.9836 52.5032 20.9954C52.3986 19.8 52.3828 18.7012 52.4557 17.699C52.5273 16.6809 52.6975 15.5979 52.9665 14.4501C53.0841 13.958 53.2772 13.5958 53.546 13.3635C53.8148 13.1312 54.26 12.9878 54.8816 12.9334C55.2323 12.9028 55.4762 12.9376 55.6135 13.038C55.7667 13.1371 55.8531 13.2981 55.8726 13.5213C55.8838 13.6488 55.8337 14.0868 55.7226 14.8354C55.6148 15.4391 55.534 15.9842 55.4802 16.4707C55.3078 18.1722 55.246 19.3019 55.2948 19.8598C55.3241 20.1945 55.3849 20.4301 55.4771 20.5666C55.568 20.6871 55.7011 20.7397 55.8764 20.7244C56.1155 20.7035 56.3895 20.4386 56.6983 19.9297C57.023 19.4195 57.3421 18.6608 57.6555 17.6536C57.9849 16.6451 58.2788 15.4148 58.5372 13.9627C58.6229 13.4734 58.7842 13.114 59.0211 12.8845C59.2739 12.6535 59.6633 12.5151 60.1893 12.4691C60.5559 12.437 60.8151 12.4625 60.967 12.5456C61.1174 12.6127 61.203 12.7658 61.224 13.0049C61.2588 13.4034 61.1551 14.5127 60.9128 16.3327C60.645 18.412 60.532 19.6907 60.5739 20.1688C60.6004 20.4717 60.685 20.7052 60.8279 20.8694C60.9693 21.0176 61.1437 21.0827 61.3509 21.0645C61.6697 21.0366 62.0275 20.8126 62.4244 20.3924C62.8358 19.9549 63.3698 19.2657 64.0263 18.3249C64.198 18.0851 64.4035 17.9547 64.6425 17.9337C64.8498 17.9156 65.0175 17.9973 65.1458 18.1788C65.2901 18.3589 65.3768 18.6163 65.4061 18.9511C65.4619 19.5886 65.3537 20.096 65.0815 20.4731C64.4701 21.3779 63.7896 22.1361 63.04 22.7477C62.3064 23.358 61.4375 23.707 60.4334 23.7949C59.6683 23.8618 59.0766 23.6165 58.6585 23.0588C58.2562 22.4997 58.0084 21.6862 57.9149 20.6183C57.7388 21.7259 57.4055 22.5982 56.9152 23.2354C56.4235 23.8566 55.8668 24.1944 55.2452 24.2488Z" fill="#403F3D"/>
<path d="M53.5606 16.8796C53.7678 16.8614 53.9362 16.9511 54.0659 17.1485C54.1956 17.346 54.2744 17.6041 54.3023 17.9229C54.3692 18.688 54.1779 19.1625 53.7282 19.3463C52.8011 19.7647 51.7659 20.048 50.6225 20.1963C50.4367 21.5616 49.9332 22.6898 49.1117 23.5808C48.2888 24.4559 47.3115 24.9429 46.1799 25.0419C45.2235 25.1256 44.3824 24.9663 43.6566 24.564C42.9467 24.1603 42.383 23.5913 41.9654 22.8569C41.5478 22.1225 41.3 21.309 41.2219 20.4164C41.1159 19.205 41.2529 18.1089 41.6328 17.1281C42.0114 16.1313 42.5841 15.3343 43.351 14.7372C44.1165 14.1242 44.9933 13.7744 45.9816 13.688C47.1929 13.582 48.2022 13.9193 49.0093 14.6999C49.8309 15.4632 50.3592 16.453 50.5941 17.6691C51.339 17.5558 52.2177 17.3183 53.23 16.9567C53.3547 16.9136 53.4649 16.8879 53.5606 16.8796ZM46.1494 22.4908C46.6595 22.4462 47.0797 22.2007 47.41 21.7542C47.7563 21.3063 47.959 20.6863 48.0182 19.8941C47.4948 19.6026 47.0739 19.1977 46.7555 18.6795C46.4531 18.1599 46.2754 17.5972 46.2224 16.9916C46.2001 16.7365 46.2017 16.4794 46.2272 16.2202L46.1076 16.2307C45.4701 16.2864 44.9633 16.644 44.5873 17.3032C44.2259 17.9452 44.094 18.824 44.1916 19.9398C44.2683 20.8164 44.4942 21.4712 44.8694 21.9042C45.2605 22.3357 45.6872 22.5313 46.1494 22.4908Z" fill="#403F3D"/>
<path d="M36.3093 26.4354C35.4805 26.508 34.8262 26.3725 34.3464 26.029C33.8826 25.6841 33.6298 25.2726 33.5879 24.7944C33.5517 24.38 33.6717 24.0081 33.9481 23.6787C34.2244 23.3494 34.6575 23.1589 35.2472 23.1073C35.4544 23.0892 35.6956 23.0922 35.9708 23.1163C36.2604 23.1231 36.4777 23.1282 36.6226 23.1316C36.5704 22.7185 36.4406 22.3364 36.2332 21.9851C36.0417 21.6325 35.8038 21.3 35.5195 20.9876C35.2338 20.6592 34.9682 20.3773 34.7228 20.1418C34.3109 21.1254 33.8851 21.9497 33.4454 22.6145C33.0216 23.278 32.5472 23.9137 32.0222 24.5218C31.7604 24.8338 31.4701 25.0038 31.1513 25.0316C30.8963 25.054 30.6814 24.9844 30.5067 24.823C30.3306 24.6457 30.2307 24.4216 30.207 24.1506C30.1791 23.8318 30.2648 23.5272 30.4643 23.2367L30.7416 22.827C31.5235 21.6664 32.1068 20.7159 32.4918 19.9756C32.7223 19.4896 32.9874 18.8481 33.2871 18.0509C33.5853 17.2379 33.8735 16.4016 34.1517 15.542C34.3932 14.8142 34.9921 14.4085 35.9484 14.3248C36.3947 14.2858 36.709 14.2984 36.8913 14.3628C37.0736 14.4271 37.1725 14.547 37.1878 14.7223C37.1962 14.8179 37.1775 14.9722 37.1319 15.1849C37.0863 15.3977 37.0167 15.6126 36.9233 15.8296C36.6866 16.4285 36.5857 16.9272 36.6205 17.3257C36.6415 17.5647 36.7442 17.8208 36.9286 18.0937C37.1291 18.3653 37.4235 18.7009 37.8118 19.1006C38.3804 19.7254 38.8131 20.2657 39.11 20.7216C39.4214 21.1601 39.6015 21.6583 39.6503 22.2162C39.6642 22.3756 39.6678 22.6001 39.6611 22.8898C40.4156 22.5187 41.2617 21.6335 42.1993 20.2345C42.371 19.9946 42.5765 19.8642 42.8155 19.8433C43.0227 19.8252 43.1905 19.9069 43.3188 20.0884C43.4631 20.2685 43.5498 20.5259 43.5791 20.8606C43.6321 21.4663 43.5239 21.9737 43.2545 22.3827C42.544 23.4407 41.8382 24.185 41.1371 24.6158C40.4505 25.0292 39.5747 25.2985 38.5095 25.4238C37.9194 26.0215 37.186 26.3587 36.3093 26.4354Z" fill="#403F3D"/>
<path d="M32.6171 20.7357C32.8243 20.7175 32.9921 20.7992 33.1204 20.9807C33.2646 21.1608 33.3514 21.4183 33.3807 21.753C33.4365 22.3905 33.3283 22.8979 33.0561 23.2751C32.5291 24.0439 31.7502 24.7786 30.7193 25.4791C29.7044 26.1782 28.5833 26.5815 27.3559 26.6888C25.6823 26.8353 24.3436 26.4947 23.3396 25.667C22.3356 24.8394 21.7646 23.6365 21.6266 22.0586C21.5304 20.9588 21.6722 19.9185 22.0522 18.9376C22.4308 17.9408 23.0021 17.1279 23.7662 16.4989C24.5462 15.8686 25.4542 15.508 26.4903 15.4174C27.4147 15.3365 28.1803 15.5506 28.787 16.0597C29.3923 16.5528 29.7361 17.2696 29.8183 18.21C29.9145 19.3098 29.599 20.293 28.8718 21.1597C28.1591 22.009 26.8826 22.7471 25.0422 23.3739C25.5048 24.0722 26.294 24.3726 27.4098 24.275C28.127 24.2122 28.9183 23.894 29.7836 23.3204C30.6634 22.7295 31.4025 21.9983 32.0009 21.1269C32.1726 20.887 32.378 20.7566 32.6171 20.7357ZM26.2888 17.796C25.6991 17.8476 25.227 18.2342 24.8725 18.9559C24.534 19.6761 24.4073 20.5224 24.4923 21.4947L24.4965 21.5425C25.4174 21.2371 26.1293 20.8375 26.6322 20.3438C27.1351 19.8501 27.3607 19.3083 27.3091 18.7186C27.2826 18.4158 27.174 18.1843 26.9834 18.0243C26.8072 17.847 26.5757 17.7709 26.2888 17.796Z" fill="#403F3D"/>
<path d="M23.6906 21.5167C23.8978 21.4986 24.0656 21.5803 24.1939 21.7618C24.3382 21.9419 24.4249 22.1993 24.4542 22.5341C24.5086 23.1557 24.4004 23.6631 24.1296 24.0561C23.4454 25.0476 22.7351 25.8324 21.9987 26.4108C21.261 26.9733 20.3581 27.3012 19.2902 27.3946C18.2541 27.4853 17.3451 27.2837 16.5631 26.79C15.797 26.2949 15.028 25.3985 14.256 24.1009C13.6351 23.063 13.151 22.3023 12.8035 21.8188C12.4547 21.3193 12.119 20.9712 11.7967 20.7745C11.4903 20.5765 11.1198 20.4724 10.6852 20.4622C10.6508 20.8025 10.5595 21.8705 10.4114 23.6663C10.3537 24.4744 10.3165 24.9675 10.3 25.1456C10.2256 26.1319 9.97238 26.9089 9.54023 27.4767C9.10668 28.0286 8.40376 28.3471 7.43148 28.4321C6.36356 28.5256 5.38799 28.2977 4.50477 27.7486C3.63609 27.1822 2.9298 26.3606 2.38589 25.2839C1.84059 24.1913 1.50518 22.9277 1.37968 21.4932C1.1454 18.8154 1.40544 16.4638 2.15978 14.4383C2.93006 12.4115 4.10738 10.8148 5.69174 9.64829C7.29064 8.46443 9.18989 7.77628 11.3895 7.58384C12.9196 7.44997 14.223 7.56883 15.2994 7.94043C16.3759 8.31202 17.1968 8.88265 17.762 9.65231C18.3432 10.4206 18.6784 11.3148 18.7676 12.3349C18.8457 13.2275 18.7073 14.1229 18.3522 15.0213C18.0117 15.9023 17.4476 16.7066 16.66 17.434C15.8724 18.1614 14.8869 18.7375 13.7034 19.1622C14.4866 19.3025 15.1057 19.5856 15.5605 20.0116C16.0154 20.4376 16.4891 21.0787 16.9816 21.9351C17.5115 22.8524 18.0112 23.5153 18.4806 23.924C18.966 24.3312 19.4955 24.5098 20.0693 24.4596C20.5794 24.4149 21.0509 24.205 21.4838 23.8299C21.9154 23.4388 22.4456 22.7981 23.0744 21.9079C23.2461 21.6681 23.4515 21.5377 23.6906 21.5167ZM7.38374 20.727C6.84181 20.7744 6.45609 20.6797 6.22657 20.4428C6.01299 20.2045 5.89225 19.9259 5.86436 19.6071C5.8309 19.2246 5.92394 18.9113 6.14351 18.6672C6.37901 18.4218 6.65615 18.2851 6.97494 18.2572L7.57265 18.2049C7.69102 16.6206 7.81227 15.2528 7.93641 14.1016C8.05297 13.0474 8.6771 12.4708 9.80877 12.3718C10.7173 12.2923 11.2071 12.659 11.2782 13.4719C11.2936 13.6473 11.2975 13.7835 11.2899 13.8805L10.9199 17.9121C11.7764 17.789 12.5393 17.5134 13.2085 17.0855C13.8937 16.6561 14.4149 16.0966 14.7722 15.4068C15.1454 14.7156 15.2957 13.9556 15.2232 13.1268C15.1353 12.1226 14.7236 11.3636 13.988 10.8498C13.2524 10.3359 12.2232 10.1369 10.9002 10.2526C9.33819 10.3893 8.0016 10.8997 6.89043 11.7839C5.79381 12.6508 4.98568 13.8779 4.46605 15.4653C3.94503 17.0366 3.78003 18.9142 3.97108 21.0978C4.06033 22.1179 4.24063 22.9855 4.51198 23.7006C4.78334 24.4157 5.08648 24.9432 5.42139 25.2834C5.75631 25.6235 6.05925 25.7817 6.33021 25.7579C6.53742 25.7398 6.69572 25.6216 6.8051 25.4032C6.93043 25.1834 7.01272 24.839 7.05197 24.3698L7.38374 20.727Z" fill="#403F3D"/>
</svg>
